{
	"patcher" : 	{
		"fileversion" : 1,
		"appversion" : 		{
			"major" : 7,
			"minor" : 0,
			"revision" : 6,
			"architecture" : "x86",
			"modernui" : 1
		}
,
		"rect" : [ 57.0, 114.0, 892.0, 537.0 ],
		"bglocked" : 0,
		"openinpresentation" : 0,
		"default_fontsize" : 12.0,
		"default_fontface" : 0,
		"default_fontname" : "Arial",
		"gridonopen" : 1,
		"gridsize" : [ 15.0, 15.0 ],
		"gridsnaponopen" : 1,
		"objectsnaponopen" : 1,
		"statusbarvisible" : 2,
		"toolbarvisible" : 1,
		"lefttoolbarpinned" : 0,
		"toptoolbarpinned" : 0,
		"righttoolbarpinned" : 0,
		"bottomtoolbarpinned" : 0,
		"toolbars_unpinned_last_save" : 0,
		"tallnewobj" : 0,
		"boxanimatetime" : 200,
		"enablehscroll" : 1,
		"enablevscroll" : 1,
		"devicewidth" : 0.0,
		"description" : "",
		"digest" : "",
		"tags" : "",
		"style" : "",
		"subpatcher_template" : "",
		"boxes" : [ 			{
				"box" : 				{
					"id" : "obj-19",
					"maxclass" : "newobj",
					"numinlets" : 3,
					"numoutlets" : 2,
					"outlettype" : [ "", "int" ],
					"patching_rect" : [ 48.0, 417.333344, 99.0, 22.0 ],
					"style" : "",
					"text" : "player InC-1.mid"
				}

			}
, 			{
				"box" : 				{
					"id" : "obj-18",
					"maxclass" : "button",
					"numinlets" : 1,
					"numoutlets" : 1,
					"outlettype" : [ "bang" ],
					"patching_rect" : [ 88.0, 337.333344, 24.0, 24.0 ],
					"style" : ""
				}

			}
, 			{
				"box" : 				{
					"id" : "obj-16",
					"maxclass" : "newobj",
					"numinlets" : 0,
					"numoutlets" : 1,
					"outlettype" : [ "" ],
					"patching_rect" : [ 88.0, 308.0, 47.0, 22.0 ],
					"style" : "",
					"text" : "r pulse"
				}

			}
, 			{
				"box" : 				{
					"id" : "obj-9",
					"maxclass" : "newobj",
					"numinlets" : 2,
					"numoutlets" : 1,
					"outlettype" : [ "int" ],
					"patching_rect" : [ 27.0, 73.0, 29.5, 22.0 ],
					"style" : "",
					"text" : "- 1"
				}

			}
, 			{
				"box" : 				{
					"fontsize" : 24.0,
					"id" : "obj-8",
					"maxclass" : "number",
					"maximum" : 53,
					"minimum" : 1,
					"numinlets" : 1,
					"numoutlets" : 2,
					"outlettype" : [ "", "bang" ],
					"parameter_enable" : 0,
					"patching_rect" : [ 27.0, 31.0, 72.0, 35.0 ],
					"style" : ""
				}

			}
, 			{
				"box" : 				{
					"id" : "obj-6",
					"maxclass" : "newobj",
					"numinlets" : 1,
					"numoutlets" : 1,
					"outlettype" : [ "" ],
					"patching_rect" : [ 27.0, 134.0, 73.0, 22.0 ],
					"style" : "",
					"text" : "prepend pic"
				}

			}
, 			{
				"box" : 				{
					"id" : "obj-5",
					"items" : [ "Sco1.png", ",", "Sco2.png", ",", "Sco3.png", ",", "Sco4.png", ",", "Sco5.png", ",", "Sco6.png", ",", "Sco7.png", ",", "Sco8.png", ",", "Sco9.png", ",", "Sco10.png", ",", "Sco11.png", ",", "Sco12.png", ",", "Sco13.png", ",", "Sco14.png", ",", "Sco15.png", ",", "Sco16.png", ",", "Sco17.png", ",", "Sco18.png", ",", "Sco19.png", ",", "Sco20.png", ",", "Sco21.png", ",", "Sco22.png", ",", "Sco23.png", ",", "Sco24.png", ",", "Sco25.png", ",", "Sco26.png", ",", "Sco27.png", ",", "Sco28.png", ",", "Sco29.png", ",", "Sco30.png", ",", "Sco31.png", ",", "Sco32.png", ",", "Sco33.png", ",", "Sco34.png", ",", "Sco35.png", ",", "Sco36.png", ",", "Sco37.png", ",", "Sco38.png", ",", "Sco39.png", ",", "Sco40.png", ",", "Sco41.png", ",", "Sco42.png", ",", "Sco43.png", ",", "Sco44.png", ",", "Sco45.png", ",", "Sco46.png", ",", "Sco47.png", ",", "Sco48.png", ",", "Sco49.png", ",", "Sco50.png", ",", "Sco51.png", ",", "Sco52.png", ",", "Sco53.png" ],
					"maxclass" : "umenu",
					"numinlets" : 1,
					"numoutlets" : 3,
					"outlettype" : [ "int", "", "" ],
					"parameter_enable" : 0,
					"patching_rect" : [ 27.0, 102.0, 100.0, 22.0 ],
					"style" : ""
				}

			}
, 			{
				"box" : 				{
					"id" : "obj-1",
					"maxclass" : "fpic",
					"numinlets" : 1,
					"numoutlets" : 1,
					"outlettype" : [ "jit_matrix" ],
					"patching_rect" : [ 27.0, 168.0, 1471.0, 126.666664 ],
					"pic" : "Sco35.png"
				}

			}
 ],
		"lines" : [ 			{
				"patchline" : 				{
					"destination" : [ "obj-18", 0 ],
					"disabled" : 0,
					"hidden" : 0,
					"source" : [ "obj-16", 0 ]
				}

			}
, 			{
				"patchline" : 				{
					"destination" : [ "obj-19", 1 ],
					"disabled" : 0,
					"hidden" : 0,
					"source" : [ "obj-18", 0 ]
				}

			}
, 			{
				"patchline" : 				{
					"destination" : [ "obj-6", 0 ],
					"disabled" : 0,
					"hidden" : 0,
					"midpoints" : [ 77.0, 129.0, 36.5, 129.0 ],
					"source" : [ "obj-5", 1 ]
				}

			}
, 			{
				"patchline" : 				{
					"destination" : [ "obj-1", 0 ],
					"disabled" : 0,
					"hidden" : 0,
					"source" : [ "obj-6", 0 ]
				}

			}
, 			{
				"patchline" : 				{
					"destination" : [ "obj-9", 0 ],
					"disabled" : 0,
					"hidden" : 0,
					"source" : [ "obj-8", 0 ]
				}

			}
, 			{
				"patchline" : 				{
					"destination" : [ "obj-5", 0 ],
					"disabled" : 0,
					"hidden" : 0,
					"source" : [ "obj-9", 0 ]
				}

			}
 ],
		"dependency_cache" : [ 			{
				"name" : "Sco35.png",
				"bootpath" : "~/Documents/MaxMSP/In C",
				"type" : "PNG ",
				"implicit" : 1
			}
, 			{
				"name" : "player.maxpat",
				"bootpath" : "~/Documents/MaxMSP/In C",
				"type" : "JSON",
				"implicit" : 1
			}
 ],
		"embedsnapshot" : 0
	}

}
