{
	"patcher" : 	{
		"fileversion" : 1,
		"appversion" : 		{
			"major" : 7,
			"minor" : 3,
			"revision" : 4,
			"architecture" : "x86",
			"modernui" : 1
		}
,
		"rect" : [ 254.0, 160.0, 310.0, 320.0 ],
		"bgcolor" : [ 1.0, 1.0, 1.0, 1.0 ],
		"bglocked" : 0,
		"openinpresentation" : 1,
		"default_fontsize" : 12.0,
		"default_fontface" : 0,
		"default_fontname" : "Arial",
		"gridonopen" : 1,
		"gridsize" : [ 15.0, 15.0 ],
		"gridsnaponopen" : 1,
		"objectsnaponopen" : 1,
		"statusbarvisible" : 2,
		"toolbarvisible" : 0,
		"lefttoolbarpinned" : 0,
		"toptoolbarpinned" : 0,
		"righttoolbarpinned" : 0,
		"bottomtoolbarpinned" : 0,
		"toolbars_unpinned_last_save" : 0,
		"tallnewobj" : 0,
		"boxanimatetime" : 200,
		"enablehscroll" : 1,
		"enablevscroll" : 0,
		"devicewidth" : 0.0,
		"description" : "",
		"digest" : "",
		"tags" : "",
		"style" : "",
		"subpatcher_template" : "",
		"boxes" : [ 			{
				"box" : 				{
					"id" : "obj-23",
					"maxclass" : "newobj",
					"numinlets" : 1,
					"numoutlets" : 1,
					"outlettype" : [ "" ],
					"patching_rect" : [ 388.0, 254.0, 81.0, 22.0 ],
					"style" : "",
					"text" : "loadmess set"
				}

			}
, 			{
				"box" : 				{
					"id" : "obj-22",
					"maxclass" : "message",
					"numinlets" : 2,
					"numoutlets" : 1,
					"outlettype" : [ "" ],
					"patching_rect" : [ 280.0, 230.0, 29.5, 22.0 ],
					"style" : "",
					"text" : "$1"
				}

			}
, 			{
				"box" : 				{
					"id" : "obj-11",
					"maxclass" : "newobj",
					"numinlets" : 1,
					"numoutlets" : 0,
					"patching_rect" : [ 220.0, 328.0, 100.0, 22.0 ],
					"style" : "",
					"text" : "print Projector IP"
				}

			}
, 			{
				"box" : 				{
					"fontsize" : 11.0,
					"id" : "obj-10",
					"maxclass" : "textbutton",
					"numinlets" : 1,
					"numoutlets" : 3,
					"outlettype" : [ "", "", "int" ],
					"parameter_enable" : 0,
					"patching_rect" : [ 280.0, 121.0, 103.0, 65.0 ],
					"presentation" : 1,
					"presentation_rect" : [ 105.5, 197.0, 138.0, 47.0 ],
					"style" : "",
					"text" : "Enter the IP address for the designated projector",
					"truncate" : 0,
					"usebgoncolor" : 1,
					"usetextovercolor" : 1
				}

			}
, 			{
				"box" : 				{
					"id" : "obj-7",
					"maxclass" : "newobj",
					"numinlets" : 2,
					"numoutlets" : 2,
					"outlettype" : [ "", "bang" ],
					"patching_rect" : [ 280.0, 197.0, 204.0, 22.0 ],
					"style" : "",
					"text" : "dialog Enter IP Address for Projector"
				}

			}
, 			{
				"box" : 				{
					"id" : "obj-3",
					"linecount" : 2,
					"maxclass" : "comment",
					"numinlets" : 1,
					"numoutlets" : 0,
					"patching_rect" : [ 73.999992, 144.0, 150.0, 33.0 ],
					"style" : "",
					"text" : "Enter the IP address for the designated projector:"
				}

			}
, 			{
				"box" : 				{
					"comment" : "",
					"id" : "obj-36",
					"index" : 0,
					"maxclass" : "inlet",
					"numinlets" : 0,
					"numoutlets" : 1,
					"outlettype" : [ "" ],
					"patching_rect" : [ 594.333313, 19.499998, 30.0, 30.0 ],
					"style" : ""
				}

			}
, 			{
				"box" : 				{
					"id" : "obj-35",
					"maxclass" : "message",
					"numinlets" : 2,
					"numoutlets" : 1,
					"outlettype" : [ "" ],
					"patching_rect" : [ 594.333313, 63.0, 35.0, 22.0 ],
					"style" : "",
					"text" : "front"
				}

			}
, 			{
				"box" : 				{
					"id" : "obj-33",
					"maxclass" : "newobj",
					"numinlets" : 1,
					"numoutlets" : 2,
					"outlettype" : [ "", "" ],
					"patching_rect" : [ 594.333313, 93.0, 69.0, 22.0 ],
					"save" : [ "#N", "thispatcher", ";", "#Q", "end", ";" ],
					"style" : "",
					"text" : "thispatcher"
				}

			}
, 			{
				"box" : 				{
					"id" : "obj-32",
					"maxclass" : "comment",
					"numinlets" : 1,
					"numoutlets" : 0,
					"patching_rect" : [ 280.0, 288.5, 138.0, 20.0 ],
					"presentation" : 1,
					"presentation_rect" : [ 105.5, 247.166656, 138.0, 20.0 ],
					"style" : ""
				}

			}
, 			{
				"box" : 				{
					"id" : "obj-29",
					"maxclass" : "comment",
					"numinlets" : 1,
					"numoutlets" : 0,
					"patching_rect" : [ 223.0, 288.5, 55.0, 20.0 ],
					"presentation" : 1,
					"presentation_rect" : [ 29.833313, 247.166656, 70.666687, 20.0 ],
					"style" : "",
					"text" : "send to: ",
					"textjustification" : 2
				}

			}
, 			{
				"box" : 				{
					"id" : "obj-26",
					"maxclass" : "newobj",
					"numinlets" : 1,
					"numoutlets" : 1,
					"outlettype" : [ "" ],
					"patching_rect" : [ 280.0, 257.0, 74.0, 22.0 ],
					"style" : "",
					"text" : "prepend set"
				}

			}
, 			{
				"box" : 				{
					"id" : "obj-24",
					"linecount" : 3,
					"maxclass" : "comment",
					"numinlets" : 1,
					"numoutlets" : 0,
					"patching_rect" : [ 124.5, 11.500004, 114.0, 47.0 ],
					"presentation" : 1,
					"presentation_linecount" : 3,
					"presentation_rect" : [ 8.5, 110.5, 110.0, 47.0 ],
					"style" : "",
					"text" : "Please slect a unique player number:",
					"textjustification" : 2
				}

			}
, 			{
				"box" : 				{
					"id" : "obj-19",
					"maxclass" : "incdec",
					"numinlets" : 1,
					"numoutlets" : 1,
					"outlettype" : [ "float" ],
					"parameter_enable" : 0,
					"patching_rect" : [ 187.0, 58.500004, 20.0, 24.0 ],
					"presentation" : 1,
					"presentation_rect" : [ 174.5, 122.0, 20.0, 24.0 ],
					"style" : ""
				}

			}
, 			{
				"box" : 				{
					"fontface" : 1,
					"fontsize" : 20.0,
					"id" : "obj-18",
					"maxclass" : "comment",
					"numinlets" : 1,
					"numoutlets" : 0,
					"patching_rect" : [ 266.0, 19.499998, 254.0, 29.0 ],
					"presentation" : 1,
					"presentation_rect" : [ 8.5, 2.499998, 254.0, 29.0 ],
					"style" : "",
					"text" : "Projector"
				}

			}
, 			{
				"box" : 				{
					"id" : "obj-15",
					"maxclass" : "comment",
					"numinlets" : 1,
					"numoutlets" : 0,
					"patching_rect" : [ 266.0, 50.5, 311.0, 20.0 ],
					"presentation" : 1,
					"presentation_rect" : [ 8.5, 33.5, 311.0, 20.0 ],
					"style" : "",
					"text" : "Show your score position on the projector screen"
				}

			}
, 			{
				"box" : 				{
					"fontsize" : 14.0,
					"id" : "obj-12",
					"maxclass" : "number",
					"numinlets" : 1,
					"numoutlets" : 2,
					"outlettype" : [ "", "bang" ],
					"parameter_enable" : 0,
					"patching_rect" : [ 129.0, 58.500004, 53.0, 24.0 ],
					"presentation" : 1,
					"presentation_rect" : [ 119.5, 122.0, 53.0, 24.0 ],
					"style" : ""
				}

			}
, 			{
				"box" : 				{
					"id" : "obj-2",
					"maxclass" : "newobj",
					"numinlets" : 1,
					"numoutlets" : 1,
					"outlettype" : [ "" ],
					"patching_rect" : [ 129.0, 88.999992, 83.0, 22.0 ],
					"style" : "",
					"text" : "sprintf %ld $1"
				}

			}
, 			{
				"box" : 				{
					"id" : "obj-30",
					"linecount" : 2,
					"maxclass" : "comment",
					"numinlets" : 1,
					"numoutlets" : 0,
					"patching_rect" : [ 274.0, 72.499992, 288.0, 33.0 ],
					"presentation" : 1,
					"presentation_linecount" : 3,
					"presentation_rect" : [ 32.5, 55.499992, 223.0, 47.0 ],
					"style" : "",
					"text" : "This will send everyone's position to the projector, provided everyone is on the same subnet"
				}

			}
, 			{
				"box" : 				{
					"id" : "obj-28",
					"maxclass" : "message",
					"numinlets" : 2,
					"numoutlets" : 1,
					"outlettype" : [ "" ],
					"patching_rect" : [ 17.333332, 133.5, 41.0, 22.0 ],
					"style" : "",
					"text" : "1 $1"
				}

			}
, 			{
				"box" : 				{
					"id" : "obj-25",
					"maxclass" : "comment",
					"numinlets" : 1,
					"numoutlets" : 0,
					"patching_rect" : [ 51.999989, 19.499998, 47.999996, 20.0 ],
					"style" : "",
					"text" : "event#"
				}

			}
, 			{
				"box" : 				{
					"id" : "obj-20",
					"maxclass" : "message",
					"numinlets" : 2,
					"numoutlets" : 1,
					"outlettype" : [ "" ],
					"patching_rect" : [ 73.999992, 210.5, 50.0, 22.0 ],
					"style" : "",
					"text" : "host $1"
				}

			}
, 			{
				"box" : 				{
					"id" : "obj-5",
					"maxclass" : "newobj",
					"numinlets" : 1,
					"numoutlets" : 0,
					"patching_rect" : [ 17.333332, 328.0, 173.0, 22.0 ],
					"style" : "",
					"text" : "udpsend 192.168.0.100 41234"
				}

			}
, 			{
				"box" : 				{
					"id" : "obj-4",
					"maxclass" : "number",
					"numinlets" : 1,
					"numoutlets" : 2,
					"outlettype" : [ "", "bang" ],
					"parameter_enable" : 0,
					"patching_rect" : [ 17.333332, 54.500004, 50.0, 22.0 ],
					"style" : ""
				}

			}
, 			{
				"box" : 				{
					"comment" : "",
					"id" : "obj-16",
					"index" : 0,
					"maxclass" : "inlet",
					"numinlets" : 0,
					"numoutlets" : 1,
					"outlettype" : [ "" ],
					"patching_rect" : [ 17.333332, 19.499998, 30.0, 30.0 ],
					"style" : ""
				}

			}
 ],
		"lines" : [ 			{
				"patchline" : 				{
					"destination" : [ "obj-7", 0 ],
					"source" : [ "obj-10", 0 ]
				}

			}
, 			{
				"patchline" : 				{
					"destination" : [ "obj-19", 0 ],
					"order" : 0,
					"source" : [ "obj-12", 0 ]
				}

			}
, 			{
				"patchline" : 				{
					"destination" : [ "obj-2", 0 ],
					"order" : 1,
					"source" : [ "obj-12", 0 ]
				}

			}
, 			{
				"patchline" : 				{
					"destination" : [ "obj-4", 0 ],
					"source" : [ "obj-16", 0 ]
				}

			}
, 			{
				"patchline" : 				{
					"destination" : [ "obj-12", 0 ],
					"source" : [ "obj-19", 0 ]
				}

			}
, 			{
				"patchline" : 				{
					"destination" : [ "obj-28", 1 ],
					"midpoints" : [ 138.5, 119.0, 48.833332, 119.0 ],
					"source" : [ "obj-2", 0 ]
				}

			}
, 			{
				"patchline" : 				{
					"destination" : [ "obj-11", 0 ],
					"order" : 0,
					"source" : [ "obj-20", 0 ]
				}

			}
, 			{
				"patchline" : 				{
					"destination" : [ "obj-5", 0 ],
					"midpoints" : [ 83.499992, 243.5, 26.833332, 243.5 ],
					"order" : 1,
					"source" : [ "obj-20", 0 ]
				}

			}
, 			{
				"patchline" : 				{
					"destination" : [ "obj-26", 0 ],
					"source" : [ "obj-22", 0 ]
				}

			}
, 			{
				"patchline" : 				{
					"destination" : [ "obj-32", 0 ],
					"midpoints" : [ 397.5, 281.75, 289.5, 281.75 ],
					"source" : [ "obj-23", 0 ]
				}

			}
, 			{
				"patchline" : 				{
					"destination" : [ "obj-32", 0 ],
					"source" : [ "obj-26", 0 ]
				}

			}
, 			{
				"patchline" : 				{
					"destination" : [ "obj-5", 0 ],
					"source" : [ "obj-28", 0 ]
				}

			}
, 			{
				"patchline" : 				{
					"destination" : [ "obj-33", 0 ],
					"source" : [ "obj-35", 0 ]
				}

			}
, 			{
				"patchline" : 				{
					"destination" : [ "obj-35", 0 ],
					"source" : [ "obj-36", 0 ]
				}

			}
, 			{
				"patchline" : 				{
					"destination" : [ "obj-28", 0 ],
					"source" : [ "obj-4", 0 ]
				}

			}
, 			{
				"patchline" : 				{
					"destination" : [ "obj-20", 0 ],
					"order" : 1,
					"source" : [ "obj-7", 0 ]
				}

			}
, 			{
				"patchline" : 				{
					"destination" : [ "obj-22", 0 ],
					"order" : 0,
					"source" : [ "obj-7", 0 ]
				}

			}
 ],
		"dependency_cache" : [  ],
		"autosave" : 0
	}

}
